<svg width="22" height="14" viewBox="0 0 22 14" fill="none" xmlns="http://www.w3.org/2000/svg">
<path d="M7 3.5C6.30777 3.5 5.63108 3.70527 5.0555 4.08986C4.47993 4.47444 4.03133 5.02107 3.76642 5.66061C3.50152 6.30015 3.4322 7.00388 3.56725 7.68282C3.7023 8.36175 4.03564 8.98539 4.52513 9.47487C5.01461 9.96436 5.63825 10.2977 6.31718 10.4327C6.99612 10.5678 7.69985 10.4985 8.33939 10.2336C8.97893 9.96867 9.52556 9.52007 9.91014 8.9445C10.2947 8.36892 10.5 7.69223 10.5 7C10.5 6.07174 10.1313 5.1815 9.47487 4.52513C8.8185 3.86875 7.92826 3.5 7 3.5V3.5ZM7 8.5C6.70333 8.5 6.41332 8.41203 6.16664 8.2472C5.91997 8.08238 5.72771 7.84811 5.61418 7.57403C5.50065 7.29994 5.47094 6.99834 5.52882 6.70736C5.5867 6.41639 5.72956 6.14912 5.93934 5.93934C6.14912 5.72956 6.41639 5.5867 6.70736 5.52882C6.99834 5.47094 7.29994 5.50065 7.57403 5.61418C7.84811 5.72771 8.08238 5.91997 8.2472 6.16665C8.41203 6.41332 8.5 6.70333 8.5 7C8.5 7.39782 8.34196 7.77936 8.06066 8.06066C7.77936 8.34196 7.39782 8.5 7 8.5ZM15 0H7C5.14348 2.76642e-08 3.36301 0.737498 2.05025 2.05025C0.737498 3.36301 0 5.14348 0 7C0 8.85652 0.737498 10.637 2.05025 11.9497C3.36301 13.2625 5.14348 14 7 14H15C16.8565 14 18.637 13.2625 19.9497 11.9497C21.2625 10.637 22 8.85652 22 7C22 5.14348 21.2625 3.36301 19.9497 2.05025C18.637 0.737498 16.8565 2.76642e-08 15 0V0ZM15 12H7C5.67392 12 4.40215 11.4732 3.46447 10.5355C2.52678 9.59785 2 8.32608 2 7C2 5.67392 2.52678 4.40215 3.46447 3.46447C4.40215 2.52678 5.67392 2 7 2H15C16.3261 2 17.5979 2.52678 18.5355 3.46447C19.4732 4.40215 20 5.67392 20 7C20 8.32608 19.4732 9.59785 18.5355 10.5355C17.5979 11.4732 16.3261 12 15 12Z" fill="black"/>
</svg>
